<svg xmlns="http://www.w3.org/2000/svg" version="1.1" viewBox="0 0 3000 3000" width="3000" height="3000">
<defs/><!--ITEM: Illustration component 1--><g transform="translate(495.0 711.6666666666667) rotate(0.0 804.1666666666667 577.5)  scale(1.6666666666666667 1.6666666666666667)"><svg width="965.0" height="693.0" viewBox="0.0 0.0 965.0 693.0"><rect fill="#fff" height="691" rx="48.5" width="963" x="1" y="1"/><path d="m915.5 693h-866c-27.294 0-49.5-22.206-49.5-49.5v-594c0-27.295 22.206-49.5 49.5-49.5h866c27.294 0 49.5 22.206 49.5 49.5v594c0 27.294-22.206 49.5-49.5 49.5zm-866-691c-26.192 0-47.5 21.308-47.5 47.5v594c0 26.191 21.308 47.5 47.5 47.5h866c26.192 0 47.5-21.309 47.5-47.5v-594c0-26.191-21.308-47.5-47.5-47.5z" fill="#112c41"/><path d="m964 52v591.5c0 26.79-21.71 48.5-48.5 48.5h-295.5v-640z" fill="#dedffe"/><path d="m915.5 693h-296.5v-642h346v592.5c0 27.294-22.206 49.5-49.5 49.5zm-294.5-2h294.5c26.192 0 47.5-21.309 47.5-47.5v-590.5h-342z" fill="#112c41"/><path d="m915.5 693h-866c-27.294 0-49.5-22.206-49.5-49.5v-594c0-27.295 22.206-49.5 49.5-49.5h866c27.294 0 49.5 22.206 49.5 49.5v594c0 27.294-22.206 49.5-49.5 49.5zm-866-691c-26.192 0-47.5 21.308-47.5 47.5v594c0 26.191 21.308 47.5 47.5 47.5h866c26.192 0 47.5-21.309 47.5-47.5v-594c0-26.191-21.308-47.5-47.5-47.5z" fill="#112c41"/><path d="m964 49.5v40.5h-963v-40.5c0-26.79 21.71-48.5 48.5-48.5h866c26.79 0 48.5 21.71 48.5 48.5z" fill="#cbc8ff"/><path d="m964 91h-963c-.552 0-1-.448-1-1v-40.5c0-27.295 22.206-49.5 49.5-49.5h866c27.294 0 49.5 22.206 49.5 49.5v40.5c0 .552-.448 1-1 1zm-962-2h961v-39.5c0-26.191-21.308-47.5-47.5-47.5h-866c-26.192 0-47.5 21.308-47.5 47.5z" fill="#112c41"/><path d="m666 130h249v249h-249z" fill="#fff"/><path d="m916 380h-251v-251h251zm-249-2h247v-247h-247z" fill="#112c41"/><rect fill="#9797f7" height="47" rx="6.435" width="47" x="58" y="22"/><path d="m98.565 70h-34.13c-4.1 0-7.435-3.335-7.435-7.435v-34.13c0-4.1 3.335-7.435 7.435-7.435h34.13c4.1 0 7.435 3.335 7.435 7.435v34.13c0 4.1-3.335 7.435-7.435 7.435zm-34.13-47c-2.997 0-5.435 2.438-5.435 5.435v34.13c0 2.997 2.438 5.435 5.435 5.435h34.13c2.997 0 5.435-2.438 5.435-5.435v-34.13c0-2.997-2.438-5.435-5.435-5.435z" fill="#112c41"/><path d="m178.025 44.692-21.882-21.882c-1.054-1.054-2.754-1.083-3.843-.065l-23.417 21.882c-1.833 1.713-.621 4.785 1.888 4.785h1.895v18.214c0 .759.615 1.374 1.374 1.374h12.388c.759 0 1.374-.615 1.374-1.374v-11.497c0-.759.615-1.374 1.374-1.374h8.826c.759 0 1.374.615 1.374 1.374v11.497c0 .759.615 1.374 1.374 1.374h12.388c.759 0 1.374-.615 1.374-1.374v-18.214h1.557c2.463 0 3.697-2.978 1.955-4.72z" fill="#dedffe"/><path d="m173.139 70h-12.388c-1.309 0-2.374-1.065-2.374-2.374v-11.498c0-.206-.168-.374-.374-.374h-8.826c-.206 0-.374.168-.374.374v11.498c0 1.309-1.065 2.374-2.374 2.374h-12.388c-1.309 0-2.374-1.065-2.374-2.374v-17.214h-.895c-1.557 0-2.931-.936-3.502-2.384s-.205-3.07.932-4.132l23.417-21.881c1.491-1.395 3.79-1.355 5.233.088l21.882 21.882c1.097 1.097 1.41 2.669.816 4.103s-1.927 2.324-3.478 2.324h-.557v17.214c0 1.309-1.065 2.374-2.374 2.374zm-23.963-16.246h8.826c1.309 0 2.374 1.065 2.374 2.374v11.498c0 .206.168.374.374.374h12.388c.206 0 .374-.168.374-.374v-18.214c0-.552.448-1 1-1h1.557c.739 0 1.348-.407 1.631-1.089.282-.682.139-1.401-.383-1.924l-21.882-21.882c-.677-.677-1.754-.695-2.453-.042l-23.417 21.882c-.55.514-.713 1.238-.437 1.937.276.7.89 1.118 1.642 1.118h1.895c.552 0 1 .448 1 1v18.214c0 .206.168.374.374.374h12.388c.206 0 .374-.168.374-.374v-11.498c0-1.309 1.065-2.374 2.374-2.374z" fill="#112c41"/></svg></g><!--ITEM: Illustration component 2--><g transform="translate(671.6666666666667 968.3333333333334) rotate(0.0 324.16666666666663 82.50000000000006)  scale(1.6796200345423142 1.6836734693877562)"><svg width="386.0" height="98.0" viewBox="0.0 0.0 386.0 98.0"><path d="m7.217 1h89.783v96h-89.783c-3.431 0-6.217-2.786-6.217-6.217v-83.566c0-3.431 2.786-6.217 6.217-6.217z" fill="#ffe993"/><path d="m97 98h-89.783c-3.979 0-7.217-3.238-7.217-7.217v-83.566c0-3.979 3.238-7.217 7.217-7.217h89.783c.552 0 1 .448 1 1v96c0 .552-.448 1-1 1zm-89.783-96c-2.877 0-5.217 2.34-5.217 5.217v83.566c0 2.877 2.34 5.217 5.217 5.217h88.783v-94z" fill="#112c41"/><path d="m97 1h96v96h-96z" fill="#ffd169"/><path d="m193 98h-96c-.552 0-1-.448-1-1v-96c0-.552.448-1 1-1h96c.552 0 1 .448 1 1v96c0 .552-.448 1-1 1zm-95-2h94v-94h-94z" fill="#112c41"/><path d="m193 1h96v96h-96z" fill="#fcaa51"/><path d="m289 98h-96c-.552 0-1-.448-1-1v-96c0-.552.448-1 1-1h96c.552 0 1 .448 1 1v96c0 .552-.448 1-1 1zm-95-2h94v-94h-94z" fill="#112c41"/><path d="m289 1h89.913c3.359 0 6.087 2.727 6.087 6.087v83.826c0 3.359-2.727 6.087-6.087 6.087h-89.913z" fill="#ff9522"/><path d="m378.913 98h-89.913c-.552 0-1-.448-1-1v-96c0-.552.448-1 1-1h89.913c3.908 0 7.087 3.179 7.087 7.087v83.826c0 3.908-3.179 7.087-7.087 7.087zm-88.913-2h88.913c2.805 0 5.087-2.282 5.087-5.087v-83.826c0-2.805-2.282-5.087-5.087-5.087h-88.913z" fill="#112c41"/></svg></g><!--ITEM: Illustration component 3--><g transform="translate(1110.0 1886.6666666666667) rotate(0.0 -169.16666666666663 72.5)  scale(-1.7530224525043174 1.7444868201013006)"><svg width="193.0" height="83.119" viewBox="0.0 0.0 193.0 83.119"><path d="m191.754 77.977c-.244 2.369-1.698 4.143-3.43 4.143h-176.377c-.757 0-1.488-.338-2.085-.974-3.985-4.173-17.833-21.307.109-41.928 10.77-12.376 27.838-22.466 47.1-29.162 37.524-13.063 83.345-13.238 106.929 7.711 16.303 14.478 23.365 29.162 26.224 40.841 2.068 8.418 1.942 15.278 1.53 19.369z" fill="#cbc8ff"/><path d="m191.754 77.977c-.244 2.369-1.698 4.143-3.43 4.143h-176.377c-.757 0-1.488-.338-2.085-.974-3.985-4.173-17.833-21.307.109-41.928 10.77-12.376 23.895-21.153 43.157-27.849 20.178 0 36.531 6.932 46.209 17.37 12.519 13.494 13.486 21.594 15.167 28.772 2.522 1.025 25.223 11.279 45.729 10.418 14.439-.607 21.978-3.374 29.94-10.418 2.068 8.418 1.993 16.375 1.581 20.466z" fill="#b2b0f7"/><g fill="#112c41"><path d="m188.327 83.119h-176.378c-1.025 0-2.024-.455-2.812-1.282-3.282-3.441-18.7-21.698.08-43.278 17.875-20.541 54.357-35.915 90.779-38.257 27.571-1.773 50.54 4.164 64.669 16.714 28.375 25.205 29.092 51.096 28.083 61.057-.296 2.924-2.156 5.046-4.422 5.046zm-78.916-81.125c-3.029 0-6.124.101-9.286.304-35.925 2.309-71.852 17.409-89.4 37.574-17.199 19.763-4.457 36.061-.142 40.585.413.433.885.662 1.365.662h176.379c1.199 0 2.244-1.396 2.432-3.248.978-9.655.264-34.768-27.421-59.36-12.122-10.767-31.05-16.517-53.927-16.517z"/><path d="m115.346 83.12c-.051 0-.103-.004-.155-.012-.546-.085-.919-.596-.835-1.141 2.999-19.331-2.676-38.755-15.179-51.959-11.921-12.59-28.833-18.491-47.632-16.618-.557.053-1.04-.347-1.094-.896-.055-.549.346-1.039.896-1.094 19.425-1.935 36.927 4.184 49.283 17.233 12.926 13.651 18.796 33.703 15.703 53.641-.077.494-.502.847-.987.847z"/><path d="m156.714 68.943c-13.442 0-28.316-3.345-42.413-10.038-.499-.237-.711-.833-.475-1.332s.835-.711 1.332-.474c27.618 13.113 58.165 13.165 74.283.126.429-.347 1.059-.281 1.406.149.348.429.281 1.059-.148 1.406-8.375 6.775-20.455 10.164-33.985 10.164z"/><path d="m166.301 68.384c-.504 0-.938-.381-.993-.894-3.007-28.073-25.833-57.474-50.885-65.538-.525-.169-.814-.733-.645-1.258.169-.526.732-.815 1.258-.646 25.733 8.284 49.177 38.443 52.26 67.229.059.549-.338 1.042-.888 1.101-.036.004-.072.006-.108.006z"/></g></svg></g><!--ITEM: Illustration component 4--><g transform="translate(620.0 1206.6666666666667) rotate(0.0 403.33333333333337 240.0)  scale(1.6666666666666667 1.6666666666666667)"><svg width="484.0" height="288.0" viewBox="0.0 0.0 484.0 288.0"><path d="m465 270c-.037 0-.074-.002-.112-.006l-445.999-50c-.406-.045-.744-.333-.853-.728s.033-.814.359-1.062l263-200c.214-.163.484-.234.749-.194.266.039.505.183.663.399l183 250c.234.32.257.749.058 1.092-.18.311-.511.499-.865.499zm-443.407-51.715 441.254 49.468-181.052-247.34z" fill="#112c41"/><path d="m1 201h36v36h-36z" fill="#fff"/><path d="m37 238h-36c-.552 0-1-.448-1-1v-36c0-.552.448-1 1-1h36c.552 0 1 .448 1 1v36c0 .552-.448 1-1 1zm-35-2h34v-34h-34z" fill="#112c41"/><path d="m264 1h36v36h-36z" fill="#fff"/><path d="m300 38h-36c-.552 0-1-.448-1-1v-36c0-.552.448-1 1-1h36c.552 0 1 .448 1 1v36c0 .552-.448 1-1 1zm-35-2h34v-34h-34z" fill="#112c41"/><path d="m447 251h36v36h-36z" fill="#fff"/><path d="m483 288h-36c-.552 0-1-.448-1-1v-36c0-.552.448-1 1-1h36c.552 0 1 .448 1 1v36c0 .552-.448 1-1 1zm-35-2h34v-34h-34z" fill="#112c41"/></svg></g><!--ITEM: Illustration component 5--><g transform="translate(810.0 1391.6666666666667) rotate(0.0 917.5 399.16666666666663)  scale(1.666049275109678 1.6633295899736296)"><svg width="1101.408" height="479.961" viewBox="0.0 0.0 1101.408 479.961"><path d="m1074.893 200.961c-1.26.48-2.54.95-3.83 1.41-36.37 13.03-81.45 19.18-120.17 24.59-2.94 6.95-4.99 14.97-7.14 23.01-3.26 12.19-6.74 24.43-13.86 32.99-40.82 49.07-102 69-177.99 51.55-24.93-5.72-55.4-13.1-71.33-22.42-12.13-7.1-22.53-14.95-31.43-23.26-30.65-28.61-43.63-62.7-49.05-90.37-9.08-7.22-34.2 16.5-75.2-7.5-16.5-9.66-61-48-56-64 8.49-27.16 150-126 319.22-125.87 5.04 0 10.01.08 14.91.23 133.23 4.07 218.82 60.69 258.87 102.64 19.11 20.01 33.44 46.85 36 53 7.93 19.02.22 35.22-23 44z" fill="#ffa9dc"/><path d="m1074.893 200.961c-1.26.48-2.54.95-3.83 1.41-.45-7.67-.918-16.12-1.78-25.41-10.39-112-181.39-168-257.39-169 0 0-5.77-5.13-8.87-6.64 133.23 4.07 218.82 60.69 258.87 102.64 19.11 20.01 33.44 46.85 36 53 7.93 19.02.22 35.22-23 44z" fill="#ff90d8"/><path d="m600.088 198.46c-5.145-26.271-3.476-46.762-3.647-51.31" fill="#ffa9dc"/><g fill="#112c41"><path d="m600.087 199.46c-.469 0-.887-.331-.98-.808-4.25-21.698-3.878-39.215-3.7-47.634.036-1.704.064-3.05.035-3.831-.021-.552.41-1.016.962-1.037.55-.032 1.016.41 1.037.962.032.839.004 2.144-.034 3.949-.177 8.349-.545 25.72 3.663 47.207.106.542-.247 1.067-.789 1.174-.065.013-.129.019-.193.019z"/><path d="m793.794 346.247c-10.424 0-21.11-.764-32.04-2.296-26.359-3.696-66.85-22.315-81.688-30.997-54.48-31.879-74.059-79.464-80.877-113.916-2.797-1.906-7.531-.786-14 .745-13.385 3.168-33.613 7.956-60.801-7.959-15.655-9.164-61.832-47.938-56.449-65.162 4.555-14.577 44.03-47.426 99.861-75.077 49.633-24.581 128.15-53.483 220.338-51.49 52.344 1.123 100.49 8.794 143.099 22.801 35.242 11.584 66.877 27.532 94.024 47.4 46.284 33.873 68.367 71.287 73.577 86.338 7.275 21.019-.882 36.67-23.591 45.263-36.462 13.796-81.97 20.153-122.121 25.762l-1.53.214c-2.579 6.241-4.437 13.216-6.401 20.59-3.404 12.778-6.924 25.99-14.533 35.138-20.339 24.448-45.312 42.038-74.226 52.281-19.483 6.902-40.46 10.365-62.642 10.366zm-198.541-150.218c2.15 0 3.964.458 5.465 1.654.186.148.313.357.359.59 6.67 34.077 25.963 81.336 80 112.955 14.723 8.615 54.87 27.085 80.956 30.743 11.027 1.545 21.776 2.313 32.211 2.313 54.692.001 100.881-21.093 134.882-61.963 7.328-8.809 10.79-21.805 14.138-34.374 1.948-7.312 3.962-14.874 6.71-21.375.137-.324.434-.553.783-.601l2.095-.293c40.047-5.594 85.437-11.935 121.689-25.652 21.52-8.143 29.269-22.921 22.409-42.738-5.139-14.847-26.982-51.797-72.868-85.378-60.484-44.264-139.881-67.754-235.987-69.816-169.885-3.628-310.047 98.926-318.247 125.166-4.775 15.281 39.705 53.563 55.551 62.839 26.497 15.51 46.256 10.833 59.33 7.739 4.149-.982 7.64-1.808 10.525-1.808z"/><path d="m607.613 225.931c-16.08-7.13-36.7-18.61-58.32-32.94-29.29-19.4-53.1-39.14-64.44-52.59-.9-1.06-1.71-2.09-2.45-3.07-4.09-5.44-5.69-9.58-4.18-11.84.36-.56.91-.99 1.62-1.29 2.81-1.2 8.24-.49 15.58 1.87.18.06.35.11.53.17 16.88 5.53 43.63 19.5 72.1 38.35 10.75 7.11 20.75 14.27 29.68 21.14l.15.12c.01.26.02.53.04.79.74 13.56 5.52 26.33 9.69 39.29z"/><path d="m609.249 227.751-2.041-.905c-16.845-7.469-37.61-19.196-58.467-33.021-28.579-18.929-52.748-38.66-64.652-52.779-.813-.958-1.627-1.977-2.484-3.112-4.596-6.112-5.974-10.364-4.213-12.998.456-.709 1.153-1.271 2.063-1.656 3.007-1.284 8.483-.666 16.275 1.839l.54.174c17.647 5.781 44.691 20.161 72.336 38.464 10.434 6.902 20.44 14.028 29.738 21.182l.447.358.093.516c.01.267.02.514.038.752.634 11.616 4.343 22.896 7.929 33.804.576 1.75 1.151 3.502 1.716 5.257l.684 2.125zm-125.938-103.119c-1.273 0-2.308.162-3.075.489-.535.226-.928.532-1.171.911-.693 1.037-1.062 3.783 4.138 10.698.833 1.103 1.622 2.092 2.413 3.024 11.615 13.776 36.225 33.854 64.23 52.404 19.927 13.208 39.755 24.486 56.121 31.937-.338-1.035-.677-2.068-1.017-3.102-3.627-11.032-7.377-22.439-8.024-34.297-.009-.109-.015-.224-.021-.342-9.188-7.06-19.083-14.104-29.402-20.929-27.505-18.21-54.368-32.503-71.86-38.233l-.535-.172c-4.908-1.578-8.948-2.388-11.796-2.388z"/><path d="m1073.563 188.371c-.74.33-1.5.66-2.28 1-16.65 7.11-43.18 14.58-73.51 20.16-34.55 6.36-65.39 8.68-82.89 6.86-7.06-.73-11.96-2.13-14.04-4.21-.25-1.44-.5-2.81-.74-4.12 1.28-2.79 5.65-5.99 12.44-9.32 15.9-7.79 45.1-16.42 79.03-22.67 30.47-5.63 58.06-8.09 76.15-7.35 2.16.09 4.19.22 6.06.4 2.33.22 4.43.51 6.29.87 5.71 1.12 9.08 2.89 9.54 5.32.67 3.65-5.32 8.25-16.05 13.06z"/><path d="m928.455 218.004c-5.093 0-9.685-.203-13.675-.618-7.509-.776-12.436-2.29-14.644-4.498l-.224-.224-.054-.312c-.249-1.437-.499-2.804-.738-4.111l-.057-.311.132-.287c1.363-2.972 5.706-6.269 12.909-9.801 16.693-8.179 46.334-16.686 79.289-22.756 29.54-5.458 57.376-8.143 76.372-7.365 2.248.093 4.305.229 6.115.403 2.356.222 4.504.52 6.384.884 6.412 1.257 9.792 3.258 10.333 6.116.755 4.114-4.838 8.875-16.624 14.159h-.002c-.656.293-1.328.586-2.016.886l-.271.118c-17.424 7.44-44.295 14.812-73.729 20.227-26.397 4.859-51.179 7.489-69.499 7.489zm-26.684-6.323c1.438 1.261 4.906 2.856 13.215 3.716 17.896 1.862 49.548-.764 82.606-6.849 29.295-5.39 56.011-12.715 73.298-20.096l.265-.116c.682-.297 1.349-.588 2-.878 14.735-6.606 15.73-10.569 15.474-11.966-.355-1.876-3.462-3.482-8.749-4.519-1.814-.352-3.898-.64-6.191-.856-1.776-.171-3.796-.304-6.008-.396-18.851-.769-46.527 1.901-75.927 7.334-32.786 6.039-62.233 14.482-78.772 22.585-8.021 3.934-10.883 6.794-11.836 8.569.204 1.112.414 2.268.624 3.473z"/><path d="m735.633 17.14c.108 9.924 20.295 17.747 45.1 17.478 24.804-.26 44.827-8.524 44.73-18.448-.06-6.104-7.748-11.421-19.433-14.545-10.974-.583-21.492-.646-31.411-.252-7.354.298-15.05.894-23.01 1.802-9.818 3.406-16.037 8.424-15.975 13.965z"/></g><path d="m618.893 249.961c-95.772 115.639-229.353 112.018-288.821 110.159-59.469-1.858-116.977-17.395-136.592-23.23-3.587-1.068-7.587-.929-13.009-.929-.009 0 0 0 0 0-5.318 1.367-18.563 8.345-33.578 19-9.911 7.033-21.991 13.929-35 13-4.206-.3-19.206-1.945-18-14 .929-9.292 36.401-23.575 26.18-35.655-14.867-17.655-59.208 25.209-78.248 34.064-16.159 6.207-23.32-9.084-11.593-35.993-28.397 2.938-10.771-39.168 6.854-52.489-25.459 10.771-47.194-.928-29.376-19.584 17.757-14.821 57.182-30.344 109.182-34.344 21.501-1.654 45.979-3.539 113.755 5.204 86.415 11.15 173.072-10.695 250.428-71.204 4.265-3.336 14.692-13.469 18.817-17 15.685 5.138 39.546 18.485 66 36 9.989 6.607 22.05 15.589 30.347 21.973.056.288 2.034.257 2.09.536 1.347 6.244 2.811 18.412 3.563 22.491.818 4.404 3.346 11.122 5 16 3.271 9.719 8.376 18.65 12 26z" fill="#ffd6c0"/><path d="m618.893 249.961c-95.772 115.639-228.373 111.63-287.842 109.771-59.469-1.858-122.552-18.324-142.167-24.159-3.587-1.068-4.646-.929-4.646-.929s140.309 19.513 229.512 1.858c107.083-21.193 153.892-81.436 189.143-123.541 3.271 9.719 12 30 16 37z" fill="#f5b9ab"/><path d="m113.247 369.135c-4.679 0-8.963-.805-12.445-2.488-4.745-2.293-7.405-5.948-7.694-10.568-.404-6.459 7.284-12.399 14.719-18.144 8.713-6.732 16.943-13.091 12.412-19.435-3.987-5.581-11.442-5.725-22.793-.435-10.212 4.759-21.962 13.159-32.329 20.57-8.75 6.256-16.307 11.658-21.891 14.255-6.498 2.499-11.99 1.824-15.526-1.873-5.661-5.917-5.306-18.297.891-33.331-8.016 1.14-11.554-2.462-13.115-5.824-4.953-10.671 3.443-32.416 16.721-45.415-13.195 4.345-25.712 3.124-30.438-3.39-1.964-2.707-4.027-8.625 4.227-17.85 14.684-16.411 48.758-28.375 98.541-34.597 24.27-3.034 60.664-5.415 127.228 3.174 89.243 11.516 175.582-13.036 249.684-71 2.669-2.087 7.409-6.333 11.591-10.08 2.409-2.158 4.685-4.197 6.213-5.504.265-.227.631-.3.961-.19 16.608 5.441 40.752 18.241 66.241 35.116 10.426 6.896 20.568 14.079 28.557 20.225.082.063.153.138.211.222.256.223 1.136.829 1.731 1.237 1.985 1.364 2.242 1.558 2.345 2.075 1.091 5.057 2.366 13.67 3.127 18.816.185 1.251.343 2.317.464 3.106 1.973 12.826 11.429 31.616 16.891 41.675.195.359.152.8-.109 1.115-41.317 49.887-94.496 83.29-158.061 99.279-52.809 13.285-101.493 11.764-130.582 10.854-55.47-1.733-109.226-15.964-132.181-22.041-1.716-.454-3.263-.864-4.632-1.221-16.593-4.33-28.608 5.149-40.227 14.314-2.966 2.339-6.032 4.758-9.126 6.91-9.653 6.715-21.542 10.439-31.606 10.44zm-1.865-56.951c4.558 0 8.029 1.717 10.484 5.154 5.65 7.911-3.738 15.165-12.817 22.179-7.022 5.426-14.283 11.036-13.946 16.437.305 4.873 3.74 7.525 6.568 8.893 8.819 4.264 26.551 2.981 42.039-7.792 3.045-2.119 6.087-4.518 9.03-6.839 12.004-9.469 24.416-19.256 41.971-14.68 1.371.357 2.921.768 4.639 1.223 22.889 6.059 76.49 20.249 131.732 21.975 57.209 1.788 191.069 5.962 286.61-108.891-5.565-10.306-14.807-28.856-16.787-41.729-.122-.792-.28-1.862-.466-3.117-.744-5.026-1.979-13.375-3.046-18.417-.33-.258-1.066-.764-1.581-1.119-1.326-.911-1.9-1.313-2.167-1.628-7.931-6.094-17.975-13.205-28.303-20.036-25.073-16.6-48.797-29.221-65.225-34.707-1.494 1.293-3.568 3.151-5.752 5.107-4.206 3.768-8.972 8.037-11.694 10.166-74.532 58.301-161.385 82.995-251.172 71.408-66.341-8.56-102.572-6.192-126.724-3.173-49.296 6.162-82.941 17.901-97.298 33.947-5.424 6.062-6.879 11.51-4.099 15.342 4.152 5.722 17.745 7.549 33.306.701.463-.202 1.004-.03 1.262.405.258.434.152.993-.248 1.302-14.768 11.411-25.449 35.867-20.408 46.728 1.991 4.291 6.276 5.766 12.732 4.379.366-.077.746.055.984.345.237.291.292.689.143 1.033-6.455 14.813-7.223 27.403-2.004 32.857 2.943 3.077 7.667 3.58 13.301 1.415 5.352-2.492 13.2-8.102 21.508-14.042 10.437-7.461 22.267-15.919 32.647-20.756 5.818-2.711 10.729-4.068 14.781-4.068zm485.95-125.891.006.026z" fill="#112c41"/><path d="m30.231 317.378c-.16 0-.322-.038-.473-.12-.486-.262-.668-.868-.406-1.354 4.441-8.248 17.39-28.429 41.651-37.67.517-.196 1.094.063 1.291.579s-.063 1.094-.579 1.291c-23.632 9.001-36.266 28.698-40.601 36.749-.181.335-.525.526-.881.526z" fill="#112c41"/><path d="m28.273 273.314c-.191 0-.383-.054-.554-.168-.46-.306-.584-.927-.277-1.387 6.737-10.105 20.524-16.659 31.602-21.925 2.104-1 4.123-1.959 5.993-2.895.494-.247 1.095-.047 1.342.447s.047 1.095-.447 1.342c-1.881.94-3.911 1.906-6.028 2.912-10.856 5.16-24.366 11.583-30.796 21.228-.193.289-.51.445-.833.445z" fill="#112c41"/><path d="m655.225 384.492h-431.541c-3.862 0-7.223-2.656-8.108-6.414l-3.939-16.678-59.013-249.805c-5.977-24.762 6.579-36.226 28.711-36.28 91.643-.226 366.574 0 366.574 0 10.558 0 20.436 3.489 28.416 9.493 8.634 6.466 15.035 15.869 17.653 26.966l3.413 14.433c.09.411.179.821.282 1.232l55.28 233.962 3.939 16.678.782 3.323c.372 1.578-.821 3.092-2.45 3.092z" fill="#dedffe"/><path d="m655.225 385.492h-431.541c-4.351 0-8.085-2.955-9.081-7.186l-62.952-266.482c-2.841-11.771-1.695-21.035 3.407-27.531 5.104-6.499 14.19-9.95 26.275-9.979 90.597-.223 363.828-.002 366.578 0 10.553 0 20.587 3.353 29.017 9.694 9.03 6.763 15.432 16.542 18.025 27.536l3.412 14.432c.091.417.179.818.279 1.219l60.004 253.976c.248 1.052.006 2.141-.665 2.988-.67.847-1.676 1.333-2.759 1.333zm-338.371-309.278c-54.322 0-105.159.025-135.515.1-11.451.028-19.995 3.215-24.707 9.215-4.705 5.991-5.726 14.682-3.034 25.832l62.953 266.487c.783 3.324 3.717 5.645 7.135 5.645h431.54c.468 0 .902-.209 1.191-.574s.393-.834.286-1.288l-4.721-20-55.28-233.961c-.102-.408-.194-.828-.286-1.249l-3.409-14.416c-2.486-10.539-8.622-19.913-17.279-26.396-8.082-6.081-17.7-9.294-27.817-9.294-1.829-.001-123.265-.1-231.057-.1z" fill="#112c41"/><path d="m807.312 368.455v8.98c0 3.897-3.159 7.056-7.056 7.056h-576.575c-3.862 0-7.217-2.656-8.104-6.414l-3.939-16.678h588.618c3.897 0 7.056 3.159 7.056 7.056z" fill="#b2b0f7"/><path d="m800.256 385.492h-576.575c-4.346 0-8.079-2.955-9.077-7.185l-3.938-16.677c-.07-.298 0-.611.189-.851s.479-.379.784-.379h588.617c4.442 0 8.056 3.614 8.056 8.056v8.98c0 4.442-3.614 8.056-8.056 8.056zm-587.354-23.092 3.648 15.448c.784 3.324 3.717 5.645 7.131 5.645h576.575c3.339 0 6.056-2.717 6.056-6.056v-8.98c0-3.339-2.717-6.056-6.056-6.056h-587.354z" fill="#112c41"/><path d="m656.892 378.077c.773 3.275-1.712 6.414-5.077 6.414h-428.131c-3.862 0-7.223-2.656-8.108-6.414l-3.939-16.678h441.316z" fill="#cbc8ff"/><path d="m651.815 385.492h-428.131c-4.351 0-8.085-2.955-9.081-7.186l-3.938-16.677c-.07-.298 0-.611.189-.851s.479-.379.784-.379h441.316c.464 0 .867.319.973.77l3.938 16.678c.439 1.86.01 3.787-1.176 5.286s-2.963 2.358-4.874 2.358zm-438.914-23.092 3.648 15.448c.783 3.324 3.717 5.645 7.135 5.645h428.131c1.296 0 2.501-.583 3.306-1.6s1.095-2.323.798-3.585l-3.757-15.908h-439.26z" fill="#112c41"/><circle cx="385.239" cy="225.413" fill="#fff" r="27.514"/><ellipse cx="697.401" cy="274.351" fill="#ffd6c0" rx="21.729" ry="42.952" transform="matrix(.8660254 -.5 .5 .8660254 -43.742 385.457)"/><path d="m712.719 314.121c-4.191 0-8.966-1.667-13.986-4.948-7.739-5.058-15.203-13.389-21.016-23.458s-9.296-20.698-9.807-29.929c-.524-9.474 2.145-16.398 7.514-19.499 10.854-6.266 29.542 5.711 41.659 26.699 5.813 10.069 9.296 20.698 9.807 29.929.524 9.474-2.145 16.398-7.514 19.499-1.976 1.141-4.218 1.706-6.657 1.706zm-30.575-77.554c-2.085 0-4.014.469-5.719 1.454-4.683 2.704-6.998 8.974-6.517 17.656.494 8.924 3.882 19.237 9.542 29.04s12.897 17.894 20.378 22.783c7.279 4.758 13.867 5.889 18.549 3.184 4.683-2.704 6.998-8.974 6.517-17.656-.494-8.924-3.882-19.237-9.542-29.04-9.574-16.583-23.188-27.42-33.208-27.42z" fill="#112c41"/><path d="m686.142 416.973h-.01c-5.053-3.365-10.116-6.872-15.19-10.521-23.204-16.706-43.093-31.522-61.649-36.383-20.718-5.427-39.01-18.161-23.224-34.341-8.388-5.65-6.013-30.865 25.721-43.599-29.42-1.546-40.314-8.287-40.537-21.223-.222-12.34 27.267-23.911 65.964-20.132 39.991 3.901 79.598 25.114 123.671 55.625 39.415 27.287 98.011 39.394 129.361 9.096 21.526-20.809 16.049-73.22 11.066-101.851-.253-1.455-.18-4.36-.422-5.683 1.294-2.82 4.138-5.635 11-9 16.069-7.873 46.709-17.684 81-24 18.899-3.497 35.841-4.929 51-6 9.54-.667 19.022.468 26.076.761 1.415 7.054 2.627 14.017 3.598 20.869 34.2 242.663-165.966 373.661-387.426 226.381z" fill="#ffd6c0"/><path d="m686.142 416.973c162.671 100.649 416.358 47.769 357.751-248.012 9.54-.667 19.022.468 26.076.761 1.415 7.054 2.627 14.017 3.598 20.869 34.2 242.663-165.966 373.661-387.426 226.381z" fill="#f5b9ab"/><path d="m867.963 479.949c-9.945 0-20.056-.619-30.301-1.865-55.051-6.698-111.341-30.525-167.305-70.82l-3.624-2.612c-21.62-15.591-40.292-29.056-57.694-33.615-16.168-4.235-27.183-11.672-29.465-19.893-1.389-5.004.299-10.15 5.017-15.308-2.748-2.5-4.093-7.063-3.543-12.257 1.011-9.542 8.562-22.294 26.533-30.713-25.876-1.928-37.099-8.588-37.329-21.942-.057-3.179 1.558-6.38 4.672-9.257 8.764-8.094 31.454-14.909 62.388-11.887 35.527 3.466 72.654 20.153 124.143 55.798 38.87 26.91 96.973 39.278 128.097 9.199 21.111-20.407 15.813-72.015 10.776-100.961-.252-1.453-.504-2.834-.747-4.155-.919-4.798 10.792-11.108 15.869-13.598 15.79-7.736 43.938-15.58 79.259-22.085 33.301-6.153 59.287-6.667 75.222-6.016.461.019.849.35.94.802 1.361 6.785 2.669 14.487 3.684 21.688 16.348 116.002-20.592 213.466-98.813 260.715-31.482 19.016-68.289 28.782-107.781 28.782zm-196.437-74.308c107.33 77.278 220.669 93.656 303.185 43.814 77.513-46.822 114.099-143.541 97.867-258.724-.971-6.893-2.213-14.246-3.511-20.802-15.895-.597-41.415-.004-73.992 6.015-35.147 6.474-63.111 14.257-78.742 21.915-8.99 4.409-15.208 9.218-14.784 11.434.245 1.334.498 2.722.751 4.181 5.105 29.335 10.417 81.693-11.357 102.741-13.126 12.687-30.889 18.041-49.995 18.042-27.311.001-57.375-10.936-80.63-27.035-51.19-35.438-88.035-52.022-123.199-55.453-30.319-2.958-52.401 3.575-60.837 11.366-2.721 2.514-4.077 5.122-4.03 7.752.219 12.742 12.059 18.796 39.589 20.243.469.024.857.372.934.834.077.463-.179.917-.614 1.092-19.919 7.993-28.105 21.116-29.124 30.731-.53 5.004.845 9.262 3.59 11.11.246.166.406.432.436.727s-.072.588-.279.801c-4.762 4.881-6.54 9.653-5.282 14.182 2.089 7.527 12.573 14.441 28.044 18.494 17.762 4.654 36.574 18.219 58.356 33.927l3.623 2.611z" fill="#112c41"/><path d="m580.158 346.399c-.097 0-.196-.014-.293-.044-.528-.162-.824-.72-.663-1.247.142-.466 3.636-11.492 16.581-17.83 13.429-6.576 31.61-5.581 54.036 2.957.516.196.775.774.579 1.291-.197.516-.775.773-1.29.579-21.861-8.323-39.491-9.349-52.399-3.052-12.171 5.937-15.562 16.536-15.595 16.642-.133.43-.529.706-.956.706z" fill="#112c41"/><path d="m597.484 300.797c-.294 0-.585-.129-.783-.377-.344-.432-.273-1.061.158-1.405.295-.235 29.896-23.32 64.185-5.114.488.259.673.864.414 1.352s-.864.674-1.352.415c-33.108-17.579-61.716 4.684-62 4.911-.184.146-.404.218-.623.218z" fill="#112c41"/><path d="m901.644 217.992c-.482 0-.907-.349-.986-.84-2.729-16.895-7.676-28.726-16.538-39.558-.35-.428-.287-1.058.141-1.407.427-.349 1.057-.288 1.407.141 9.102 11.124 14.175 23.238 16.965 40.505.088.545-.282 1.059-.828 1.147-.054.009-.108.013-.161.013z" fill="#112c41"/></svg></g><!--ITEM: Illustration component 6--><g transform="translate(2368.3333333333335 861.6666666666667) rotate(-38.5217970120247 -285.0 285.0)  scale(-1.9 1.9)"><svg width="300.0" height="300.0" viewBox="0.0 0.0 300.0 300.0"><path d="m51.314 158.691c1.598 22.007 14.142 97.056 16.264 109.663.172 1.023 1.103 1.728 2.135 1.616 16.507-1.79 140.867-17.19 217.782-82.03.717-.604.902-1.636.448-2.456l-53.83-97.331c-.474-.858-1.51-1.233-2.423-.879l-179.128 69.457c-.802.311-1.31 1.102-1.248 1.96z" fill="#b2b0f7"/><path d="m52.558 156.729 2.456-.95c5.845 26.727 25.531 94.799 30.561 112.095-7.677 1.151-13.191 1.806-15.866 2.092-1.025.118-1.953-.586-2.134-1.611-2.117-12.603-14.665-87.651-16.263-109.664-.062-.855.445-1.645 1.246-1.962z" fill="#9797f7"/><path d="m69.501 270.98c-1.423 0-2.667-1.029-2.908-2.461-2.438-14.48-14.684-87.82-16.275-109.757-.095-1.3.662-2.491 1.885-2.964l179.127-69.458c1.372-.534 2.948.038 3.66 1.328l53.83 97.33c.685 1.238.398 2.796-.68 3.704-77.516 65.347-204.136 80.722-218.318 82.26-.108.013-.216.018-.321.018zm162.895-182.838c-.115 0-.231.021-.345.064l-179.127 69.458c-.396.153-.643.536-.612.954 1.586 21.847 13.817 95.105 16.254 109.569.084.505.542.847 1.04.787 14.121-1.531 140.184-16.836 217.245-81.801.351-.295.442-.803.219-1.206l-53.831-97.331c-.174-.313-.502-.494-.843-.494z" fill="#112c41"/><circle cx="252.068" cy="108.927" fill="#ffd6c0" r="28.57"/><path d="m278.757 115.809c-.328 1.299-.761 2.57-1.273 3.792.635.232 1.238.527 1.804.867.528-1.239.976-2.525 1.327-3.852-.597-.308-1.213-.578-1.858-.807z" fill="#ffd6c0"/><path d="m253.618 137.454c15.244-.826 27.048-13.459 27.02-28.563-3.678 10.659-13.512 18.556-25.463 19.213-15.755.852-29.226-11.233-30.078-26.988-.025-.511-.037-1.018-.037-1.523-1.179 3.4-1.723 7.072-1.516 10.88.852 15.757 14.319 27.833 30.074 26.981z" fill="#f5b9ab"/><path d="m252.082 138.497c-7.676 0-15.128-3.012-20.654-8.396-.396-.385-.403-1.018-.018-1.414s1.019-.402 1.414-.018c5.508 5.364 13.067 8.192 20.737 7.787 15.179-.824 26.859-13.843 26.036-29.023-.823-15.179-13.863-26.895-29.023-26.036-14.325.776-25.777 12.607-26.071 26.934-.012.553-.483.986-1.021.979-.552-.012-.99-.469-.979-1.021.315-15.366 12.599-28.057 27.964-28.89 16.264-.909 30.244 11.646 31.127 27.926.884 16.28-11.644 30.244-27.925 31.127-.529.03-1.059.044-1.587.045z" fill="#112c41"/><path d="m238.712 118.012c-.395 0-.769-.235-.927-.623-1.841-4.531-1.854-9.49-.038-13.965 1.82-4.483 5.26-7.942 9.684-9.741 4.995-2.028 10.6-1.648 15.376 1.045.481.271.651.881.38 1.362-.271.48-.88.651-1.362.38-4.242-2.394-9.216-2.734-13.64-.934-3.921 1.593-6.969 4.661-8.585 8.641-1.619 3.988-1.605 8.413.039 12.458.208.512-.039 1.096-.55 1.304-.124.049-.251.073-.377.073z" fill="#112c41"/><circle cx="153.017" cy="151.069" fill="#ffd6c0" r="102.5"/><path d="m100.496 63.393c.296-.179.597-.34.894-.516l12.176 7.222c-45.64 27.794-61.043 84.796-33.791 129.838 27.301 45.124 87.076 61.157 132.91 33.426 4.552-2.754 8.809-5.821 12.74-9.157-5.567 5.461-11.843 10.368-18.808 14.582-48.435 29.305-111.453 13.797-140.758-34.637s-13.798-111.453 34.637-140.758z" fill="#f5b9ab"/><path d="m153.743 254.632c-8.298 0-16.653-1.006-24.918-3.039-26.846-6.606-49.511-23.271-63.822-46.925-29.543-48.828-13.853-112.588 34.975-142.131 48.825-29.542 112.586-13.854 142.131 34.976 29.542 48.829 13.853 112.588-34.976 142.131-16.37 9.905-34.734 14.988-53.39 14.988zm-87.029-50.999c14.035 23.196 36.263 39.539 62.589 46.018 26.328 6.479 53.6 2.316 76.796-11.718 47.884-28.972 63.271-91.5 34.3-139.385-28.973-47.885-91.499-63.271-139.385-34.3-47.885 28.972-63.272 91.5-34.3 139.385z" fill="#112c41"/><ellipse cx="134.131" cy="138.371" fill="#112c41" rx="6.828" ry="9.104" transform="matrix(.8556 -.5177 .5177 .8556 -52.259 89.4168)"/><ellipse cx="114.957" cy="114.55" fill="#112c41" rx="14.13" ry="9.336" transform="matrix(.7708 -.637 .637 .7708 -46.6279 99.4788)"/><ellipse cx="219.002" cy="136.986" fill="#ffa6e0" rx="12.121" ry="8.009" transform="matrix(.7966 -.6045 .6045 .7966 -38.2632 160.2611)"/><ellipse cx="130.722" cy="167.011" fill="#ffa6e0" rx="12.121" ry="8.009" transform="matrix(.9964 -.0851 .0851 .9964 -13.7458 11.7371)"/><g fill="#112c41"><ellipse cx="198.549" cy="84.637" rx="8.6" ry="13.016" transform="matrix(.0599 -.9982 .9982 .0599 102.1716 277.7607)"/><path d="m197.873 78.017c.354 0 .714.011 1.071.032 5.961.358 10.816 3.677 10.602 7.248-.197 3.287-4.826 5.96-10.319 5.96-.355 0-.716-.011-1.073-.032-5.961-.358-10.816-3.677-10.602-7.248.197-3.286 4.827-5.96 10.321-5.96m-.002-2c-6.641 0-12.047 3.365-12.316 7.841-.284 4.741 5.302 8.933 12.478 9.364.402.024.799.036 1.192.036 6.641 0 12.047-3.365 12.316-7.841.284-4.741-5.302-8.934-12.478-9.364-.401-.024-.798-.036-1.192-.036z"/><ellipse cx="199.286" cy="114.024" rx="6.828" ry="9.104" transform="matrix(.9838 -.1791 .1791 .9838 -17.1985 37.533)"/><path d="m155.752 147.901c5.765 11.086 16.345 17.212 25.193 13.976s12.981-14.742 10.233-26.931z"/><path d="m176.025 163.739c-7.885 0-16.185-5.808-21.161-15.377-.132-.255-.148-.555-.045-.823.104-.268.319-.479.589-.577l35.428-12.955c.271-.096.57-.076.822.062.253.138.434.378.497.658 2.909 12.91-1.66 24.724-10.866 28.09-1.704.622-3.474.922-5.264.922zm-18.843-15.296c5.725 10.184 15.433 15.42 23.42 12.494 7.991-2.922 12.031-13.183 9.835-24.655z"/></g><path d="m187.018 156.898c-4.278-2.949-10.716-2.995-16.218.334-1.405.85-2.643 1.856-3.698 2.969 4.494 2.561 9.388 3.305 13.843 1.676 2.562-.937 4.729-2.568 6.445-4.711-.122-.092-.246-.181-.372-.268z" fill="#ffa6e0"/><path d="m176.035 163.734c-3.104 0-6.328-.897-9.428-2.664-.267-.152-.449-.419-.494-.723s.052-.611.264-.834c1.14-1.203 2.454-2.259 3.906-3.137 5.65-3.421 12.604-3.541 17.302-.302h.001c.137.095.272.191.405.292.217.162.357.405.392.674s-.043.539-.212.75c-1.884 2.354-4.199 4.045-6.882 5.025-1.68.616-3.446.919-5.254.919zm-7.25-3.775c4.022 1.958 8.176 2.312 11.816.979 2.01-.734 3.788-1.934 5.298-3.569-4.045-2.429-9.81-2.166-14.581.72-.909.549-1.758 1.176-2.533 1.87z" fill="#112c41"/><circle cx="45.993" cy="188.703" fill="#ffd6c0" r="30.5"/><circle cx="45.993" cy="188.703" fill="#ffd6c0" r="30.5"/><path d="m76.143 193.953c-1.088 2.116-2.798 4.327-4.427 6.197-11.088 12.688-30.728 13.521-43.409 2.439-8.322-7.269-11.137-17.588-9.371-27.723-6.366 12.187-4.442 27.103 6.376 36.561 12.674 11.089 31.949 9.797 43.037-2.891 3.812-4.357 6.876-9.254 7.794-14.583z" fill="#f5b9ab"/><path d="m46.046 220.196c-10.67.001-21.089-5.411-27.004-15.187-8.991-14.86-4.216-34.266 10.646-43.257 14.023-8.488 32.449-4.687 41.947 8.651.32.45.216 1.074-.234 1.395-.449.321-1.073.217-1.395-.234-8.895-12.49-26.149-16.05-39.283-8.101-6.742 4.079-11.492 10.539-13.375 18.19s-.674 15.578 3.405 22.32c8.421 13.917 26.594 18.39 40.512 9.969 6.893-4.171 12.218-11.906 13.897-20.189.11-.54.632-.885 1.18-.781.541.11.891.638.781 1.18-1.788 8.812-7.468 17.052-14.823 21.502-5.085 3.076-10.704 4.541-16.254 4.542z" fill="#112c41"/><path d="m29.384 188.744c-.067 0-.136-.007-.204-.021-.541-.112-.889-.642-.776-1.183 1.186-5.712 4.804-10.468 9.926-13.049 4.538-2.284 9.715-2.621 14.581-.938 4.856 1.676 8.819 5.159 11.161 9.806.248.493.05 1.095-.443 1.344-.495.246-1.096.049-1.344-.443-2.104-4.18-5.666-7.311-10.026-8.816-4.352-1.503-8.979-1.206-13.028.836-4.575 2.304-7.807 6.557-8.867 11.668-.1.472-.516.796-.98.796z" fill="#112c41"/><path d="m57.857 71.824c4.123-6.086 8.952-11.819 14.459-17.07 5.066-4.831 10.697-9.251 16.866-13.157 36.268-22.966 80.622-21.529 112.014.31 8.51 5.92 16.083 13.328 22.252 22.178 1.241 1.781-.222 3.261-1.904 3.01-16.94-2.53-46.735.669-67.103 6.08-13.589 3.61-27.174 9.636-40.631 16.932-5.661 3.069-11.098 6.334-16.296 9.764-3.977-8.938-5.893-18.207-5.733-26.979-3.914 9.589-5.281 22.362-4.59 34.301-16.751 12.683-31.264 27.636-41.27 42.557-.827 1.234-2.623 1.437-3.084-.548-6.093-26.216-.595-54.33 15.02-77.378z" fill="#b2b0f7"/><path d="m45.616 150.203c3.799-5.72 12.304-15.984 17.164-21.488-5.369-23.413-1.317-57.375 22.255-79.853 4.535-4.316 9.577-8.278 15.094-11.771 3.971-2.514 8.059-4.713 12.217-6.576-7.945 2.687-15.722 6.369-23.165 11.082-6.167 3.905-11.798 8.323-16.869 13.156-26.497 25.278-37.54 61.802-29.351 94.978.31 1.235 1.953 1.532 2.655.472z" fill="#9797f7"/><path d="m44.345 151.687c-.146 0-.29-.013-.435-.039-1.018-.188-1.764-.996-2.048-2.22-6.134-26.394-.605-54.884 15.166-78.164l.828.561-.828-.561c4.209-6.213 9.12-12.012 14.597-17.233 5.179-4.938 10.905-9.406 17.021-13.278 17.72-11.222 37.914-16.999 58.381-16.803 20.018.224 38.946 6.15 54.739 17.137 8.85 6.158 16.42 13.703 22.501 22.427.752 1.079.847 2.293.255 3.247-.618.996-1.847 1.516-3.127 1.324-17.59-2.628-47.724 1.017-66.698 6.058-12.322 3.272-25.541 8.782-40.412 16.844-5.557 3.014-11.015 6.284-16.222 9.721-.245.161-.549.206-.831.125-.282-.083-.514-.285-.634-.554-3.168-7.12-5.089-14.592-5.653-21.895-2.362 8.192-3.358 18.356-2.758 28.753.02.333-.129.653-.395.854-16.592 12.563-31.168 27.591-41.042 42.316-.583.869-1.493 1.38-2.405 1.38zm101.518-125.744c-19.695 0-39.083 5.692-56.146 16.498-6.006 3.803-11.628 8.188-16.711 13.036-5.374 5.124-10.192 10.812-14.321 16.907-15.461 22.821-20.882 50.737-14.875 76.59.046.195.182.654.462.706.216.028.57-.119.818-.488 9.909-14.778 24.481-29.846 41.072-42.475-.675-12.79 1.028-25.229 4.691-34.204.183-.445.656-.695 1.127-.602.472.097.808.517.799.998-.151 8.351 1.636 17.134 5.178 25.474 4.953-3.229 10.12-6.307 15.375-9.156 15.012-8.139 28.374-13.705 40.852-17.02 19.171-5.093 49.665-8.768 67.507-6.103.483.077.943-.093 1.133-.399.219-.354-.029-.81-.196-1.05-5.945-8.528-13.348-15.906-22.003-21.928-15.463-10.758-34.004-16.56-53.618-16.779-.382-.003-.764-.005-1.144-.005z" fill="#112c41"/><path d="m273.626 145.54c-5.824 0-11.118-3.439-13.486-8.763-.224-.505.003-1.096.508-1.32.507-.223 1.096.003 1.32.508 2.047 4.602 6.623 7.575 11.658 7.575 7.032 0 12.753-5.722 12.753-12.754s-5.721-12.753-12.753-12.753c-3.255 0-6.354 1.226-8.725 3.451-.403.377-1.034.358-1.414-.045-.378-.403-.357-1.036.045-1.414 2.744-2.574 6.328-3.992 10.094-3.992 8.135 0 14.753 6.618 14.753 14.753 0 8.136-6.618 14.754-14.753 14.754z" fill="#112c41"/><path d="m45.815 236.962c-8.135 0-14.753-6.618-14.753-14.754 0-8.135 6.618-14.753 14.753-14.753.553 0 1 .447 1 1s-.447 1-1 1c-7.032 0-12.753 5.721-12.753 12.753s5.721 12.754 12.753 12.754 12.754-5.722 12.754-12.754c0-1.799-.366-3.537-1.09-5.168-.224-.505.004-1.096.509-1.319.507-.227 1.097.005 1.319.509.837 1.888 1.262 3.898 1.262 5.979 0 8.135-6.618 14.753-14.754 14.753z" fill="#112c41"/></svg></g><!--ITEM: Illustration component 7--><g transform="translate(1291.6666666666667 971.6666666666667) rotate(0.0 63.33333333333337 63.33333333333337)  scale(1.7051905101660776 1.7051905101660776)"><svg width="74.283" height="74.283" viewBox="0.0 0.0 74.283 74.283"><path d="m70.71 3.573c-3.758-3.758-10.257-3.352-14.516.907l-45.364 45.364c-2.887 2.887-3.998 6.802-3.247 10.196-1.542.208-3.085.939-4.331 2.186-2.756 2.756-3.019 6.961-.587 9.393s6.637 2.169 9.393-.587c1.247-1.247 1.978-2.79 2.185-4.331 3.394.751 7.309-.36 10.196-3.247l45.364-45.365c4.259-4.259 4.665-10.758.907-14.516z" fill="#fff"/><g fill="#112c41"><path d="m6.822 74.277c-1.81 0-3.556-.644-4.864-1.952-2.818-2.818-2.554-7.666.587-10.807 1.094-1.094 2.448-1.878 3.891-2.266-.433-3.563.93-7.358 3.688-10.116l45.363-45.363c4.642-4.642 11.789-5.048 15.93-.907 2.023 2.023 3.033 4.807 2.844 7.839-.187 2.985-1.519 5.859-3.751 8.091l-45.364 45.364c-2.758 2.758-6.553 4.12-10.116 3.688-.387 1.442-1.171 2.796-2.265 3.891-1.683 1.683-3.855 2.54-5.943 2.54zm57.462-72.275c-2.57 0-5.276 1.079-7.383 3.185l-45.364 45.363c-2.54 2.54-3.681 6.094-2.978 9.273.061.273.004.559-.156.788s-.409.381-.686.419c-1.384.187-2.719.862-3.758 1.901-2.361 2.361-2.625 5.941-.587 7.979s5.617 1.775 7.979-.587c1.04-1.04 1.715-2.374 1.901-3.758.037-.277.189-.526.418-.686.229-.161.515-.218.788-.157 3.179.705 6.733-.438 9.273-2.978l45.365-45.362c1.887-1.887 3.013-4.303 3.169-6.801.153-2.451-.65-4.689-2.262-6.301-1.529-1.528-3.577-2.278-5.719-2.278z"/><path d="m68.467 25.776-3.175-3.175 4.083-4.083c4.259-4.259 5.166-10.257.907-14.516s-10.257-3.352-14.516.907l-4.083 4.083-3.175-3.175c-2.255-2.255-5.911-2.255-8.165 0-2.255 2.255-2.255 5.911 0 8.165l19.96 19.96c2.255 2.255 5.911 2.255 8.165 0s2.255-5.911 0-8.165z"/><path d="m64.384 36.629c-1.735 0-3.469-.66-4.79-1.981l-19.959-19.96c-2.641-2.641-2.641-6.938 0-9.579 2.641-2.642 6.938-2.642 9.58 0l2.468 2.468 3.376-3.375c4.957-4.958 11.508-5.331 15.93-.908 4.423 4.423 4.05 10.974-.907 15.931l-3.376 3.375 2.468 2.469c2.641 2.641 2.641 6.938 0 9.579-1.321 1.321-3.055 1.981-4.79 1.981zm-19.96-31.502c-1.222 0-2.445.465-3.376 1.396-1.861 1.861-1.861 4.89 0 6.751l19.96 19.96c1.861 1.862 4.89 1.862 6.751 0 1.861-1.861 1.861-4.89 0-6.751l-3.175-3.176c-.39-.391-.39-1.023 0-1.414l4.083-4.083c4.124-4.125 4.497-9.512.907-13.103-3.591-3.591-8.978-3.217-13.102.908l-4.083 4.083c-.39.391-1.023.391-1.414 0l-3.175-3.175c-.931-.931-2.153-1.396-3.376-1.396z"/></g></svg></g></svg>