<?xml version="1.0" encoding="UTF-8"?>
<svg width="1540px" height="534px" viewBox="0 0 1540 534" version="1.1" xmlns="http://www.w3.org/2000/svg" xmlns:xlink="http://www.w3.org/1999/xlink">
    <!-- Generator: Sketch 53.2 (72643) - https://sketchapp.com -->
    <desc>Created with Sketch.</desc>
    <g id="Page-1" stroke="none" stroke-width="1" fill="none" fill-rule="evenodd">
        <path d="M1154.98178,7.26201032e-05 C1154.99392,2.42230457e-05 1155.00608,1.48418919e-18 1155.01825,0 C1166.98573,0.0956672984 1167.01006,23.6458204 1179.02511,23.6458204 C1191.06254,23.6458204 1191.06254,1.46639875e-15 1203.09997,1.46639875e-15 C1215.1364,1.46639875e-15 1215.1364,23.6458204 1227.17283,23.6458204 C1239.19426,23.6458204 1239.19426,1.46639875e-15 1251.21669,1.46639875e-15 C1263.25312,1.46639875e-15 1263.25312,23.6458204 1275.28855,23.6458204 C1287.32398,23.6458204 1287.32398,1.46639875e-15 1299.36041,1.46639875e-15 C1311.39184,1.46639875e-15 1311.39184,23.6458204 1323.42227,23.6458204 C1335.4477,23.6458204 1335.4477,1.46639875e-15 1347.47213,1.46639875e-15 C1359.51356,1.46639875e-15 1359.51356,23.6458204 1371.55398,23.6458204 C1383.59141,23.6458204 1383.59141,1.46639875e-15 1395.62784,1.46639875e-15 C1407.66427,1.46639875e-15 1407.66427,23.6458204 1419.6997,23.6458204 C1431.72213,23.6458204 1431.72213,1.46639875e-15 1443.74456,1.46639875e-15 C1455.78099,1.46639875e-15 1455.78099,23.6458204 1467.81642,23.6458204 C1479.85185,23.6458204 1479.85185,1.46639875e-15 1491.88828,1.46639875e-15 C1503.91971,1.46639875e-15 1503.91971,23.6458204 1515.95014,23.6458204 C1527.97557,23.6458204 1527.97557,1.46639875e-15 1540,0 L1540,531.633918 C1538.12009,533.053967 1535.8622,534 1532.85334,534 C1520.81291,534 1520.81291,510.35318 1508.77148,510.35318 C1496.74705,510.35318 1496.74705,534 1484.72262,534 C1472.69119,534 1472.69119,510.35318 1460.66076,510.35318 C1448.62433,510.35318 1448.62433,534 1436.5879,534 C1424.55247,534 1424.55247,510.35318 1412.51604,510.35318 C1400.49461,510.35318 1400.49461,534 1388.47218,534 C1376.43575,534 1376.43575,510.35318 1364.39932,510.35318 C1355.37175,510.35318 1353.11486,527.37577 1347.47213,531.633918 C1345.59122,533.053967 1343.33432,534 1340.32547,534 C1328.28504,534 1328.28504,510.35318 1316.24461,510.35318 C1304.21918,510.35318 1304.21918,534 1292.19375,534 C1280.16332,534 1280.16332,510.35318 1268.13289,510.35318 C1256.09646,510.35318 1256.09646,534 1244.06103,534 C1232.0246,534 1232.0246,510.35318 1219.98817,510.35318 C1207.96574,510.35318 1207.96574,534 1195.94431,534 C1183.90788,534 1183.90788,510.35318 1171.87245,510.35318 C1162.88292,510.35318 1160.60663,527.228875 1155.01825,531.577967 L1155.01825,531.633918 C1153.13834,533.053967 1150.88045,534 1147.87159,534 C1135.83116,534 1135.83116,510.35318 1123.78973,510.35318 C1111.7653,510.35318 1111.7653,534 1099.74087,534 C1087.70944,534 1087.70944,510.35318 1075.67901,510.35318 C1063.64258,510.35318 1063.64258,534 1051.60615,534 C1039.57072,534 1039.57072,510.35318 1027.53429,510.35318 C1015.51286,510.35318 1015.51286,534 1003.49043,534 C991.454003,534 991.454003,510.35318 979.417573,510.35318 C970.390001,510.35318 968.133108,527.37577 962.490375,531.633918 C960.609465,533.053967 958.352572,534 955.343714,534 C943.303285,534 943.303285,510.35318 931.262856,510.35318 C919.237426,510.35318 919.237426,534 907.211996,534 C895.181566,534 895.181566,510.35318 883.151136,510.35318 C871.114707,510.35318 871.114707,534 859.079277,534 C847.042848,534 847.042848,510.35318 835.006419,510.35318 C822.983988,510.35318 822.983988,534 810.962558,534 C798.926129,534 798.926129,510.35318 786.890699,510.35318 C777.901167,510.35318 775.624879,527.228875 770.036498,531.577967 L770.036498,531.633918 C768.156587,533.053967 765.898694,534 762.889837,534 C750.849408,534 750.849408,510.35318 738.807979,510.35318 C726.783549,510.35318 726.783549,534 714.759119,534 C702.727689,534 702.727689,510.35318 690.697259,510.35318 C678.66083,510.35318 678.66083,534 666.6244,534 C654.588971,534 654.588971,510.35318 642.552541,510.35318 C630.531111,510.35318 630.531111,534 618.508681,534 C606.472252,534 606.472252,510.35318 594.435822,510.35318 C585.40825,510.35318 583.151357,527.37577 577.508625,531.633918 C575.627714,533.053967 573.370821,534 570.361963,534 C558.321534,534 558.321534,510.35318 546.281105,510.35318 C534.255675,510.35318 534.255675,534 522.230245,534 C510.199815,534 510.199815,510.35318 498.169385,510.35318 C486.132956,510.35318 486.132956,534 474.097527,534 C462.061097,534 462.061097,510.35318 450.024668,510.35318 C438.002238,510.35318 438.002238,534 425.980807,534 C413.944378,534 413.944378,510.35318 401.908948,510.35318 C392.919417,510.35318 390.643128,527.228875 385.054748,531.577967 L385.054747,531.633918 C383.174837,533.053967 380.916944,534 377.908086,534 C365.867657,534 365.867657,510.35318 353.826228,510.35318 C341.801798,510.35318 341.801798,534 329.777368,534 C317.745938,534 317.745938,510.35318 305.715508,510.35318 C293.679079,510.35318 293.679079,534 281.642649,534 C269.60722,534 269.60722,510.35318 257.57079,510.35318 C245.54936,510.35318 245.54936,534 233.52693,534 C221.490501,534 221.490501,510.35318 209.454071,510.35318 C200.426499,510.35318 198.169606,527.37577 192.526874,531.633918 C190.645963,533.053967 188.38907,534 185.380212,534 C173.339783,534 173.339783,510.35318 161.299354,510.35318 C149.273924,510.35318 149.273924,534 137.248494,534 C125.218064,534 125.218064,510.35318 113.187635,510.35318 C101.151205,510.35318 101.151205,534 89.1157757,534 C77.0793462,534 77.0793462,510.35318 65.0429168,510.35318 C53.0204867,510.35318 53.0204867,534 40.9990565,534 C28.9626271,534 28.9626271,510.35318 16.9271976,510.35318 C7.89862558,510.35318 5.64173257,527.37577 0,531.633918 L0,0 C12.0404293,1.46639875e-15 12.0404293,23.6458204 24.0798586,23.6458204 C36.1172879,23.6458204 36.1172879,1.46639875e-15 48.1547173,1.46639875e-15 C60.1911468,1.46639875e-15 60.1911468,23.6458204 72.2275762,23.6458204 C84.2490064,23.6458204 84.2490064,1.46639875e-15 96.2714365,1.46639875e-15 C108.307866,1.46639875e-15 108.307866,23.6458204 120.343295,23.6458204 C132.378725,23.6458204 132.378725,1.46639875e-15 144.415154,1.46639875e-15 C156.446584,1.46639875e-15 156.446584,23.6458204 168.477014,23.6458204 C180.502444,23.6458204 180.502444,1.46639875e-15 192.526874,1.46639875e-15 C204.568303,1.46639875e-15 204.568303,23.6458204 216.608732,23.6458204 C228.646162,23.6458204 228.646162,1.46639875e-15 240.682591,1.46639875e-15 C252.71902,1.46639875e-15 252.71902,23.6458204 264.75445,23.6458204 C276.77688,23.6458204 276.77688,1.46639875e-15 288.79931,1.46639875e-15 C300.83574,1.46639875e-15 300.83574,23.6458204 312.871169,23.6458204 C324.906599,23.6458204 324.906599,1.46639875e-15 336.943028,1.46639875e-15 C348.974458,1.46639875e-15 348.974458,23.6458204 361.004887,23.6458204 C373.005934,23.6458204 373.030268,0.0957947191 384.981751,0.000291261847 C384.993937,1.48418919e-18 385.006112,2.42230457e-05 385.018273,7.26201032e-05 C385.030419,2.42230457e-05 385.042577,1.48418919e-18 385.054747,0 C397.022229,0.0956672984 397.04656,23.6458204 409.061609,23.6458204 C421.099039,23.6458204 421.099039,1.46639875e-15 433.136468,1.46639875e-15 C445.172898,1.46639875e-15 445.172898,23.6458204 457.209327,23.6458204 C469.230757,23.6458204 469.230757,1.46639875e-15 481.253187,1.46639875e-15 C493.289617,1.46639875e-15 493.289617,23.6458204 505.325046,23.6458204 C517.360476,23.6458204 517.360476,1.46639875e-15 529.396905,1.46639875e-15 C541.428335,1.46639875e-15 541.428335,23.6458204 553.458765,23.6458204 C565.484195,23.6458204 565.484195,1.46639875e-15 577.508625,1.46639875e-15 C589.550054,1.46639875e-15 589.550054,23.6458204 601.590483,23.6458204 C613.627912,23.6458204 613.627912,1.46639875e-15 625.664342,1.46639875e-15 C637.700771,1.46639875e-15 637.700771,23.6458204 649.736201,23.6458204 C661.758631,23.6458204 661.758631,1.46639875e-15 673.781061,1.46639875e-15 C685.81749,1.46639875e-15 685.81749,23.6458204 697.85292,23.6458204 C709.888349,23.6458204 709.888349,1.46639875e-15 721.924779,1.46639875e-15 C733.956209,1.46639875e-15 733.956209,23.6458204 745.986638,23.6458204 C757.987685,23.6458204 758.012019,0.0957947191 769.963502,0.000291261847 C769.975688,1.48418919e-18 769.987862,2.42230457e-05 770.000024,7.26201032e-05 C770.01217,2.42230457e-05 770.024328,1.48418919e-18 770.036498,0 C782.00398,0.0956672984 782.02831,23.6458204 794.04336,23.6458204 C806.08079,23.6458204 806.08079,1.46639875e-15 818.118219,1.46639875e-15 C830.154649,1.46639875e-15 830.154649,23.6458204 842.191078,23.6458204 C854.212508,23.6458204 854.212508,1.46639875e-15 866.234938,1.46639875e-15 C878.271368,1.46639875e-15 878.271368,23.6458204 890.306797,23.6458204 C902.342227,23.6458204 902.342227,1.46639875e-15 914.378656,1.46639875e-15 C926.410086,1.46639875e-15 926.410086,23.6458204 938.440515,23.6458204 C950.465945,23.6458204 950.465945,1.46639875e-15 962.490375,1.46639875e-15 C974.531805,1.46639875e-15 974.531805,23.6458204 986.572234,23.6458204 C998.609663,23.6458204 998.609663,1.46639875e-15 1010.64609,1.46639875e-15 C1022.68252,1.46639875e-15 1022.68252,23.6458204 1034.71795,23.6458204 C1046.74038,23.6458204 1046.74038,1.46639875e-15 1058.76281,1.46639875e-15 C1070.79924,1.46639875e-15 1070.79924,23.6458204 1082.83467,23.6458204 C1094.8701,23.6458204 1094.8701,1.46639875e-15 1106.90653,1.46639875e-15 C1118.93796,1.46639875e-15 1118.93796,23.6458204 1130.96839,23.6458204 C1142.96944,23.6458204 1142.99377,0.0957947191 1154.94525,0.000291261847 C1154.95744,1.48418919e-18 1154.96961,2.42230457e-05 1154.98178,7.26201032e-05 Z" id="Path" fill="#4261f7"></path>
    </g>
</svg>